<svg class="logo" viewBox="0 0 122 13" fill="none" xmlns="http://www.w3.org/2000/svg">
<path d="M0.261993 9.866C0.261993 9.622 0.321993 9.4 0.441993 9.2C0.561993 8.996 0.723993 8.834 0.927994 8.714C1.13199 8.59 1.35599 8.528 1.59999 8.528C1.84799 8.528 2.07199 8.59 2.27199 8.714C2.47599 8.834 2.63799 8.996 2.75799 9.2C2.87799 9.4 2.93799 9.622 2.93799 9.866C2.93799 10.106 2.87799 10.328 2.75799 10.532C2.63799 10.736 2.47599 10.898 2.27199 11.018C2.07199 11.142 1.84799 11.204 1.59999 11.204C1.35599 11.204 1.13199 11.142 0.927994 11.018C0.723993 10.898 0.561993 10.736 0.441993 10.532C0.321993 10.328 0.261993 10.106 0.261993 9.866Z" fill="black"/>
<path d="M11.9933 9.71C12.2533 9.71 12.4973 9.66 12.7253 9.56C12.9573 9.456 13.1873 9.324 13.4153 9.164L14.2613 10.364C13.9813 10.604 13.6393 10.804 13.2353 10.964C12.8353 11.124 12.3873 11.204 11.8913 11.204C11.2073 11.204 10.6193 11.064 10.1273 10.784C9.63531 10.5 9.25731 10.108 8.99331 9.608C8.72931 9.104 8.59731 8.52 8.59731 7.856C8.59731 7.192 8.73131 6.602 8.99931 6.086C9.27131 5.566 9.65531 5.158 10.1513 4.862C10.6513 4.566 11.2433 4.418 11.9273 4.418C12.4113 4.418 12.8413 4.486 13.2173 4.622C13.5973 4.754 13.9453 4.952 14.2613 5.216L13.4393 6.356C13.2233 6.204 12.9953 6.086 12.7553 6.002C12.5153 5.918 12.2653 5.876 12.0053 5.876C11.5773 5.876 11.2313 6.028 10.9673 6.332C10.7073 6.632 10.5773 7.14 10.5773 7.856C10.5773 8.324 10.6393 8.694 10.7633 8.966C10.8873 9.234 11.0553 9.426 11.2673 9.542C11.4833 9.654 11.7253 9.71 11.9933 9.71Z" fill="black"/>
<path d="M20.9466 9.848C21.2626 9.848 21.5166 9.798 21.7086 9.698C21.9046 9.598 22.0026 9.448 22.0026 9.248C22.0026 9.112 21.9646 8.998 21.8886 8.906C21.8126 8.814 21.6666 8.726 21.4506 8.642C21.2346 8.558 20.9146 8.458 20.4906 8.342C19.9066 8.186 19.4306 7.962 19.0626 7.67C18.6986 7.378 18.5166 6.95 18.5166 6.386C18.5166 5.818 18.7526 5.348 19.2246 4.976C19.7006 4.604 20.3866 4.418 21.2826 4.418C21.8506 4.418 22.3446 4.492 22.7646 4.64C23.1886 4.784 23.5546 4.968 23.8626 5.192L23.1066 6.308C22.8426 6.144 22.5586 6.014 22.2546 5.918C21.9506 5.818 21.6446 5.768 21.3366 5.768C20.7286 5.768 20.4246 5.932 20.4246 6.26C20.4246 6.368 20.4626 6.462 20.5386 6.542C20.6186 6.618 20.7666 6.698 20.9826 6.782C21.1986 6.862 21.5146 6.962 21.9306 7.082C22.3426 7.198 22.7006 7.332 23.0046 7.484C23.3126 7.636 23.5506 7.84 23.7186 8.096C23.8866 8.348 23.9706 8.682 23.9706 9.098C23.9706 9.562 23.8326 9.952 23.5566 10.268C23.2806 10.58 22.9146 10.814 22.4586 10.97C22.0026 11.126 21.5026 11.204 20.9586 11.204C20.3426 11.204 19.7986 11.116 19.3266 10.94C18.8546 10.764 18.4526 10.532 18.1206 10.244L19.0746 9.176C19.3226 9.368 19.6026 9.528 19.9146 9.656C20.2306 9.784 20.5746 9.848 20.9466 9.848Z" fill="black"/>
<path d="M30.7219 9.848C31.0379 9.848 31.2919 9.798 31.4839 9.698C31.6799 9.598 31.7779 9.448 31.7779 9.248C31.7779 9.112 31.7399 8.998 31.6639 8.906C31.5879 8.814 31.4419 8.726 31.2259 8.642C31.0099 8.558 30.6899 8.458 30.2659 8.342C29.6819 8.186 29.2059 7.962 28.8379 7.67C28.4739 7.378 28.2919 6.95 28.2919 6.386C28.2919 5.818 28.5279 5.348 28.9999 4.976C29.4759 4.604 30.1619 4.418 31.0579 4.418C31.6259 4.418 32.1199 4.492 32.5399 4.64C32.9639 4.784 33.3299 4.968 33.6379 5.192L32.8819 6.308C32.6179 6.144 32.3339 6.014 32.0299 5.918C31.7259 5.818 31.4199 5.768 31.1119 5.768C30.5039 5.768 30.1999 5.932 30.1999 6.26C30.1999 6.368 30.2379 6.462 30.3139 6.542C30.3939 6.618 30.5419 6.698 30.7579 6.782C30.9739 6.862 31.2899 6.962 31.7059 7.082C32.1179 7.198 32.4759 7.332 32.7799 7.484C33.0879 7.636 33.3259 7.84 33.4939 8.096C33.6619 8.348 33.7459 8.682 33.7459 9.098C33.7459 9.562 33.6079 9.952 33.3319 10.268C33.0559 10.58 32.6899 10.814 32.2339 10.97C31.7779 11.126 31.2779 11.204 30.7339 11.204C30.1179 11.204 29.5739 11.116 29.1019 10.94C28.6299 10.764 28.2279 10.532 27.8959 10.244L28.8499 9.176C29.0979 9.368 29.3779 9.528 29.6899 9.656C30.0059 9.784 30.3499 9.848 30.7219 9.848Z" fill="black"/>
<path d="M42.6992 0.919998V2.24C42.3352 2.24 42.0512 2.292 41.8472 2.396C41.6432 2.496 41.5552 2.698 41.5832 3.002L41.7692 4.772C41.8172 5.22 41.7672 5.582 41.6192 5.858C41.4752 6.134 41.2532 6.346 40.9532 6.494C40.6572 6.638 40.3072 6.74 39.9032 6.8C40.3312 6.864 40.6932 6.968 40.9892 7.112C41.2852 7.256 41.5012 7.464 41.6372 7.736C41.7732 8.008 41.8172 8.372 41.7692 8.828L41.5832 10.598C41.5552 10.902 41.6432 11.104 41.8472 11.204C42.0512 11.308 42.3352 11.36 42.6992 11.36V12.68C41.5952 12.68 40.8192 12.512 40.3712 12.176C39.9272 11.844 39.7472 11.274 39.8312 10.466L40.0112 8.75C40.0592 8.294 39.9252 7.984 39.6092 7.82C39.2932 7.652 38.8792 7.568 38.3672 7.568V6.032C38.7032 6.032 39.0012 5.998 39.2612 5.93C39.5212 5.858 39.7192 5.736 39.8552 5.564C39.9912 5.392 40.0432 5.154 40.0112 4.85L39.8312 3.146C39.7432 2.322 39.9232 1.746 40.3712 1.418C40.8192 1.086 41.5952 0.919998 42.6992 0.919998Z" fill="black"/>
<path d="M51.0946 9.71C51.3546 9.71 51.5986 9.66 51.8266 9.56C52.0586 9.456 52.2886 9.324 52.5166 9.164L53.3626 10.364C53.0826 10.604 52.7406 10.804 52.3366 10.964C51.9366 11.124 51.4886 11.204 50.9926 11.204C50.3086 11.204 49.7206 11.064 49.2286 10.784C48.7366 10.5 48.3586 10.108 48.0946 9.608C47.8306 9.104 47.6986 8.52 47.6986 7.856C47.6986 7.192 47.8326 6.602 48.1006 6.086C48.3726 5.566 48.7566 5.158 49.2526 4.862C49.7526 4.566 50.3446 4.418 51.0286 4.418C51.5126 4.418 51.9426 4.486 52.3186 4.622C52.6986 4.754 53.0466 4.952 53.3626 5.216L52.5406 6.356C52.3246 6.204 52.0966 6.086 51.8566 6.002C51.6166 5.918 51.3666 5.876 51.1066 5.876C50.6786 5.876 50.3326 6.028 50.0686 6.332C49.8086 6.632 49.6786 7.14 49.6786 7.856C49.6786 8.324 49.7406 8.694 49.8646 8.966C49.9886 9.234 50.1566 9.426 50.3686 9.542C50.5846 9.654 50.8266 9.71 51.0946 9.71Z" fill="black"/>
<path d="M60.2519 4.418C60.9079 4.418 61.4659 4.558 61.9259 4.838C62.3859 5.118 62.7379 5.512 62.9819 6.02C63.2259 6.524 63.3479 7.116 63.3479 7.796C63.3479 8.86 63.0759 9.694 62.5319 10.298C61.9879 10.902 61.2279 11.204 60.2519 11.204C59.2759 11.204 58.5159 10.906 57.9719 10.31C57.4279 9.714 57.1559 8.88 57.1559 7.808C57.1559 7.132 57.2779 6.54 57.5219 6.032C57.7699 5.524 58.1239 5.128 58.5839 4.844C59.0479 4.56 59.6039 4.418 60.2519 4.418ZM60.2519 5.816C59.8639 5.816 59.5759 5.976 59.3879 6.296C59.2039 6.612 59.1119 7.116 59.1119 7.808C59.1119 8.512 59.2039 9.022 59.3879 9.338C59.5759 9.654 59.8639 9.812 60.2519 9.812C60.6399 9.812 60.9259 9.654 61.1099 9.338C61.2979 9.022 61.3919 8.508 61.3919 7.796C61.3919 7.108 61.2979 6.606 61.1099 6.29C60.9259 5.974 60.6399 5.816 60.2519 5.816Z" fill="black"/>
<path d="M67.2672 11V4.628H68.9232L69.0552 5.366C69.3392 5.046 69.6392 4.808 69.9552 4.652C70.2712 4.496 70.6312 4.418 71.0352 4.418C71.5792 4.418 72.0072 4.584 72.3192 4.916C72.6312 5.248 72.7872 5.716 72.7872 6.32V11H70.8912V6.866C70.8912 6.474 70.8472 6.202 70.7592 6.05C70.6752 5.894 70.5152 5.816 70.2792 5.816C70.0792 5.816 69.8872 5.88 69.7032 6.008C69.5232 6.136 69.3432 6.314 69.1632 6.542V11H67.2672Z" fill="black"/>
<path d="M82.7785 10.628C82.5305 10.788 82.2305 10.924 81.8785 11.036C81.5265 11.148 81.1305 11.204 80.6905 11.204C79.8585 11.204 79.2405 10.992 78.8365 10.568C78.4325 10.14 78.2305 9.56 78.2305 8.828V5.936H76.8925V4.628H78.2305V3.248L80.1265 3.02V4.628H82.1785L81.9925 5.936H80.1265V8.828C80.1265 9.144 80.1985 9.37 80.3425 9.506C80.4865 9.642 80.7165 9.71 81.0325 9.71C81.2565 9.71 81.4605 9.684 81.6445 9.632C81.8325 9.576 82.0005 9.506 82.1485 9.422L82.7785 10.628Z" fill="black"/>
<path d="M88.4618 8.366C88.5258 8.886 88.6958 9.26 88.9718 9.488C89.2478 9.712 89.5878 9.824 89.9918 9.824C90.2838 9.824 90.5658 9.776 90.8378 9.68C91.1098 9.584 91.3718 9.456 91.6238 9.296L92.3858 10.328C92.0858 10.584 91.7218 10.794 91.2938 10.958C90.8698 11.122 90.3858 11.204 89.8418 11.204C89.1138 11.204 88.5038 11.06 88.0118 10.772C87.5198 10.48 87.1498 10.08 86.9018 9.572C86.6538 9.064 86.5298 8.48 86.5298 7.82C86.5298 7.192 86.6498 6.622 86.8898 6.11C87.1298 5.594 87.4798 5.184 87.9398 4.88C88.4038 4.572 88.9698 4.418 89.6378 4.418C90.2458 4.418 90.7718 4.548 91.2158 4.808C91.6638 5.068 92.0098 5.442 92.2538 5.93C92.5018 6.418 92.6258 7.004 92.6258 7.688C92.6258 7.796 92.6218 7.912 92.6138 8.036C92.6098 8.16 92.6018 8.27 92.5898 8.366H88.4618ZM89.6378 5.69C89.2978 5.69 89.0238 5.812 88.8158 6.056C88.6078 6.3 88.4818 6.69 88.4378 7.226H90.7778C90.7738 6.762 90.6838 6.39 90.5078 6.11C90.3318 5.83 90.0418 5.69 89.6378 5.69Z" fill="black"/>
<path d="M99.1491 9.848C99.4651 9.848 99.7191 9.798 99.9111 9.698C100.107 9.598 100.205 9.448 100.205 9.248C100.205 9.112 100.167 8.998 100.091 8.906C100.015 8.814 99.8691 8.726 99.6531 8.642C99.4371 8.558 99.1171 8.458 98.6931 8.342C98.1091 8.186 97.6331 7.962 97.2651 7.67C96.9011 7.378 96.7191 6.95 96.7191 6.386C96.7191 5.818 96.9551 5.348 97.4271 4.976C97.9031 4.604 98.5891 4.418 99.4851 4.418C100.053 4.418 100.547 4.492 100.967 4.64C101.391 4.784 101.757 4.968 102.065 5.192L101.309 6.308C101.045 6.144 100.761 6.014 100.457 5.918C100.153 5.818 99.8471 5.768 99.5391 5.768C98.9311 5.768 98.6271 5.932 98.6271 6.26C98.6271 6.368 98.6651 6.462 98.7411 6.542C98.8211 6.618 98.9691 6.698 99.1851 6.782C99.4011 6.862 99.7171 6.962 100.133 7.082C100.545 7.198 100.903 7.332 101.207 7.484C101.515 7.636 101.753 7.84 101.921 8.096C102.089 8.348 102.173 8.682 102.173 9.098C102.173 9.562 102.035 9.952 101.759 10.268C101.483 10.58 101.117 10.814 100.661 10.97C100.205 11.126 99.7051 11.204 99.1611 11.204C98.5451 11.204 98.0011 11.116 97.5291 10.94C97.0571 10.764 96.6551 10.532 96.3231 10.244L97.2771 9.176C97.5251 9.368 97.8051 9.528 98.1171 9.656C98.4331 9.784 98.7771 9.848 99.1491 9.848Z" fill="black"/>
<path d="M112.104 10.628C111.856 10.788 111.556 10.924 111.204 11.036C110.852 11.148 110.456 11.204 110.016 11.204C109.184 11.204 108.566 10.992 108.162 10.568C107.758 10.14 107.556 9.56 107.556 8.828V5.936H106.218V4.628H107.556V3.248L109.452 3.02V4.628H111.504L111.318 5.936H109.452V8.828C109.452 9.144 109.524 9.37 109.668 9.506C109.812 9.642 110.042 9.71 110.358 9.71C110.582 9.71 110.786 9.684 110.97 9.632C111.158 9.576 111.326 9.506 111.474 9.422L112.104 10.628Z" fill="black"/>
<path d="M116.906 0.919998C118.01 0.919998 118.784 1.086 119.228 1.418C119.676 1.75 119.858 2.322 119.774 3.134L119.594 4.85C119.546 5.306 119.68 5.618 119.996 5.786C120.316 5.95 120.73 6.032 121.238 6.032V7.568C120.902 7.568 120.604 7.604 120.344 7.676C120.084 7.744 119.886 7.864 119.75 8.036C119.614 8.208 119.562 8.446 119.594 8.75L119.774 10.454C119.866 11.274 119.686 11.85 119.234 12.182C118.786 12.514 118.01 12.68 116.906 12.68V11.36C117.274 11.36 117.56 11.308 117.764 11.204C117.968 11.104 118.054 10.902 118.022 10.598L117.836 8.828C117.788 8.376 117.836 8.014 117.98 7.742C118.128 7.466 118.352 7.256 118.652 7.112C118.952 6.964 119.304 6.86 119.708 6.8C119.28 6.736 118.916 6.632 118.616 6.488C118.32 6.344 118.104 6.136 117.968 5.864C117.832 5.588 117.788 5.224 117.836 4.772L118.022 3.002C118.054 2.698 117.966 2.496 117.758 2.396C117.554 2.292 117.27 2.24 116.906 2.24V0.919998Z" fill="black"/>
</svg>
